<svg xmlns="http://www.w3.org/2000/svg" xmlns:xlink="http://www.w3.org/1999/xlink" x="0px" y="0px"
	 viewBox="0 0 526.9 205.8" enable-background="new 0 0 526.9 205.8" xml:space="preserve">
<g>
	<g>
		<g>
			<path fill="#FFC425" d="M175.8,155.7c0,29-20.8,49.4-49.6,49.4c-28.8,0-49.6-20.4-49.6-49.4c0-27.1,23.8-46.1,49.6-46.1
				C152,109.6,175.8,128.6,175.8,155.7z M100.9,155.8c0,15.5,11.4,26.7,25.3,26.7c13.9,0,25.3-11.3,25.3-26.7
				c0-12.4-11.4-23.6-25.3-23.6C112.3,132.2,100.9,143.5,100.9,155.8z"/>
			<path fill="#FFC425" d="M457.9,200.4c-14.3,3.9-24.9,4.2-32.7,4.2c-22.5,0-48.6-12.2-48.6-46.4c0-34.1,22.4-47.2,53.4-47.2
				c5.6,0,17.3,0.7,25.6,4l-1.8,19.7c-7-4.4-15.3-5.9-20.6-5.9c-18.3,0-33.3,8.2-33.3,29.3c0,17.8,11.8,28.5,28.2,28.5
				c3,0,5.9-0.5,8-1.6v-17.9h-13.2v-17.1h35V200.4z"/>
			<path fill="#FFC425" d="M490,129v17h35.3v19H490V184h36.9v19h-58.8v-93h58.8v19H490z"/>
			<path fill="#FFC425" d="M336.6,129v17h31.9v19h-31.9V184h36.9v19h-58.8v-93h58.8v19H336.6z"/>
			<g>
				<path fill="#FFC425" d="M272.3,182.6h34.6V203h-58v-93h23.4V182.6z"/>
			</g>
			<g>
				<path fill="#FFC425" d="M206.6,182.6h34.6V203h-58v-93h23.4V182.6z"/>
			</g>
		</g>
		<path fill="#FFC425" d="M72.4,169.3c-4.4,8.4-12.8,13.7-22.4,13.7c-14,0-25.5-11.4-25.5-27c0-12.5,11.5-23.9,25.5-23.9
			c9.6,0,18,5.4,22.4,12.7v-30.5c-6.9-3.2-14.5-5-22.4-5c-26,0-50,19.2-50,46.5c0,29.2,21,49.8,50,49.8c8.2,0,15.7-1.7,22.4-4.7
			V169.3z"/>
	</g>
</g>
<polygon fill="#19398A" points="14.7,3.8 36.4,3.8 53.6,51.4 71.8,3.8 93.7,3.8 106.5,93 84.5,93 78.3,41.6 78.1,41.6 57.7,93 
	49,93 29.5,41.6 29.3,41.6 22.2,93 0.3,93 "/>
<path fill="#19398A" d="M202.9,46.7c0,28.9-20.7,49.2-49.3,49.2c-28.6,0-49.3-20.4-49.3-49.2c0-27,23.7-45.9,49.3-45.9
	C179.3,0.8,202.9,19.8,202.9,46.7z M128.4,46.8c0,15.4,11.4,26.6,25.2,26.6c13.8,0,25.2-11.2,25.2-26.6c0-12.3-11.4-23.6-25.2-23.6
	C139.8,23.3,128.4,34.5,128.4,46.8z"/>
<polygon fill="#19398A" points="207.2,3.8 229.2,3.8 269.7,58.3 269.9,58.3 269.9,3.8 291.9,3.8 291.9,93 269.9,93 229.5,38.3 
	229.2,38.3 229.2,93 207.2,93 "/>
<g>
	<path fill="#19398A" d="M372.8,92.9h-27.4l-21.9-34.3h-0.2v34.3h-23.2V3.8h34.6c17.6,0,31,8.4,31,27.4c0,12.3-6.9,22.9-19.5,25.2
		L372.8,92.9z M323.3,43.7h2.2c7.6,0,16.1-1.4,16.1-11.1c0-9.7-8.5-11.1-16.1-11.1h-2.2V43.7z"/>
</g>
<g>
	<path fill="#19398A" d="M491.1,23.4v14.9h34.2V58h-34.2v15.4h35.6V93h-58.8V3.8h58.8v19.6H491.1z"/>
</g>
<path fill="#19398A" d="M465.3,45.9c0,28.9-20.7,49.2-49.3,49.2c-28.6,0-49.3-20.4-49.3-49.2c0-27,23.7-45.9,49.3-45.9
	C441.6,0,465.3,18.9,465.3,45.9z M390.8,46c0,15.4,11.4,26.6,25.2,26.6c13.8,0,25.2-11.2,25.2-26.6c0-12.3-11.4-23.6-25.2-23.6
	C402.1,22.5,390.8,33.7,390.8,46z"/>
</svg>
